<svg width="24" height="24" viewBox="0 0 24 24" fill="none" xmlns="http://www.w3.org/2000/svg">
<path d="M11.9158 19.7923L5.54101 13.4175C5.4081 13.2846 5.33344 13.1043 5.33344 12.9163C5.33344 12.7284 5.4081 12.5481 5.54101 12.4152C5.67392 12.2823 5.85418 12.2076 6.04214 12.2076C6.2301 12.2076 6.41036 12.2823 6.54327 12.4152L11.7086 17.5814V3.70831C11.7086 3.52045 11.7832 3.34029 11.9161 3.20746C12.0489 3.07463 12.2291 3 12.4169 3C12.6048 3 12.7849 3.07463 12.9178 3.20746C13.0506 3.34029 13.1252 3.52045 13.1252 3.70831V17.5814L18.2906 12.4152C18.4235 12.2823 18.6038 12.2076 18.7917 12.2076C18.9797 12.2076 19.1599 12.2823 19.2929 12.4152C19.4258 12.5481 19.5004 12.7284 19.5004 12.9163C19.5004 13.1043 19.4258 13.2846 19.2929 13.4175L12.9181 19.7923C12.8523 19.8581 12.7742 19.9104 12.6882 19.946C12.6022 19.9817 12.51 20 12.4169 20C12.3238 20 12.2317 19.9817 12.1457 19.946C12.0597 19.9104 11.9816 19.8581 11.9158 19.7923Z" fill="#E31E25"/>
</svg>
